<?xml version="1.0" standalone="no"?>
<!DOCTYPE svg PUBLIC "-//W3C//DTD SVG 20010904//EN"
 "http://www.w3.org/TR/2001/REC-SVG-20010904/DTD/svg10.dtd">
<svg version="1.0" xmlns="http://www.w3.org/2000/svg"
 width="200.000000pt" height="200.000000pt" viewBox="0 0 200.000000 200.000000"
 preserveAspectRatio="xMidYMid meet">

<g transform="translate(0.000000,200.000000) scale(0.100000,-0.100000)"
fill="#000000" stroke="none">
<path d="M0 1000 l0 -1000 1000 0 1000 0 0 1000 0 1000 -1000 0 -1000 0 0
-1000z m950 577 c0 -136 -42 -332 -95 -445 -46 -98 -141 -239 -164 -245 -15
-3 -18 -1 -14 11 4 10 2 13 -5 8 -19 -11 -15 -4 43 94 97 165 149 314 160 458
12 160 13 162 46 162 28 0 29 -2 29 -43z m103 36 c3 -5 0 -60 -5 -123 -9 -118
-41 -266 -78 -359 -30 -77 -104 -205 -152 -266 -5 -5 -18 -22 -29 -38 -11 -15
-24 -25 -29 -22 -5 3 -10 0 -12 -6 -2 -7 -8 -6 -15 3 -10 11 -2 29 37 90 139
215 201 395 217 631 l6 97 28 0 c15 0 30 -3 32 -7z m107 -42 c0 -84 -29 -274
-55 -367 -14 -49 -50 -138 -80 -199 -55 -110 -163 -271 -178 -266 -5 1 -15 -6
-23 -16 -13 -16 -14 -15 -10 17 2 20 22 63 47 100 141 212 214 420 225 650 3
58 7 111 10 118 2 6 17 12 34 12 29 0 30 -1 30 -49z m238 -958 l-3 -28 -275
-3 -274 -2 29 30 29 30 249 0 248 0 -3 -27z m-3 -108 l0 -30 -242 0 c-133 0
-244 3 -248 7 -4 3 2 15 14 27 24 24 69 28 311 27 l165 -1 0 -30z m3 -107 l3
-28 -230 0 c-126 0 -232 4 -235 9 -7 11 23 37 49 44 11 3 108 4 215 3 l195 -1
3 -27z"/>
</g>
</svg>
